<?xml version="1.0" encoding="UTF-8"?>
<!DOCTYPE svg PUBLIC "-//W3C//DTD SVG 1.1//EN" "http://www.w3.org/Graphics/SVG/1.1/DTD/svg11.dtd">
<!-- Creator: CorelDRAW X8 -->
<svg xmlns="http://www.w3.org/2000/svg" xml:space="preserve" width="297mm" height="210mm" version="1.1" style="shape-rendering:geometricPrecision; text-rendering:geometricPrecision; image-rendering:optimizeQuality; fill-rule:evenodd; clip-rule:evenodd"
viewBox="0 0 29700 21000"
 xmlns:xlink="http://www.w3.org/1999/xlink"
 enable-background="new 0 0 512 512">
 <defs>
  <style type="text/css">
   <![CDATA[
    .fil0 {fill:black}
   ]]>
  </style>
 </defs>
 <g id="Слой_x0020_1">
  <metadata id="CorelCorpID_0Corel-Layer"/>
  <g id="_1826522094784">
   <path class="fil0" d="M24935 14433l-9187 0 0 -7076c510,-180 875,-666 875,-1237 0,-725 -587,-1313 -1312,-1313 -725,0 -1313,588 -1313,1313 0,571 366,1057 875,1237l0 7076 -9187 0c-484,0 -875,391 -875,874l0 4376c0,483 391,874 875,874l19249 0c484,0 876,-391 876,-874l0 -4376c0,-483 -392,-874 -876,-874zm-9624 -8750c241,0 437,196 437,437 0,241 -196,437 -437,437 -242,0 -438,-196 -438,-437 0,-241 196,-437 438,-437zm9624 14000l-19249 0 0 -4376 19249 0 0 4376z"/>
   <path class="fil0" d="M17498 17932c242,0 438,-195 438,-437 0,-241 -196,-437 -438,-437 -241,0 -438,196 -438,437 0,242 197,437 438,437z"/>
   <path class="fil0" d="M14873 17932c242,0 438,-195 438,-437 0,-241 -196,-437 -438,-437 -241,0 -438,196 -438,437 0,242 197,437 438,437z"/>
   <path class="fil0" d="M20123 17932c242,0 438,-195 438,-437 0,-241 -196,-437 -438,-437 -241,0 -438,196 -438,437 0,242 197,437 438,437z"/>
   <path class="fil0" d="M22748 17932c242,0 438,-195 438,-437 0,-241 -196,-437 -438,-437 -241,0 -438,196 -438,437 0,242 197,437 438,437z"/>
   <path class="fil0" d="M8748 18807c725,0 1313,-587 1313,-1312 0,-724 -588,-1313 -1313,-1313 -724,0 -1312,589 -1312,1313 0,725 588,1312 1312,1312zm0 -1749c241,0 437,196 437,437 0,241 -196,437 -437,437 -241,0 -437,-196 -437,-437 0,-241 196,-437 437,-437z"/>
   <path class="fil0" d="M17846 7968c0,242 196,438 437,438 156,0 292,-81 370,-204 378,-604 595,-1317 595,-2082 0,-765 -217,-1478 -595,-2082 -78,-123 -214,-204 -370,-204 -241,0 -437,196 -437,438 0,92 29,178 78,249 293,476 449,1026 449,1599 0,573 -156,1123 -449,1599 -49,71 -78,157 -78,249z"/>
   <path class="fil0" d="M19971 9381c-48,71 -77,156 -77,248 0,242 196,438 437,438 157,0 294,-82 371,-206l1 0c737,-1061 1170,-2350 1170,-3741 0,-1391 -433,-2680 -1170,-3741l-1 0c-77,-123 -214,-206 -371,-206 -241,0 -437,196 -437,438 0,92 29,177 77,248 230,326 424,677 581,1047 296,701 446,1446 446,2214 0,768 -150,1513 -446,2214 -157,371 -351,721 -581,1047z"/>
   <path class="fil0" d="M21971 1146c402,536 736,1117 1000,1739 433,1024 652,2112 652,3235 0,1122 -219,2211 -652,3235 -264,622 -598,1204 -1000,1739 -1,3 -3,5 -5,7 -58,74 -93,167 -93,269 0,242 196,438 437,438 150,0 281,-75 361,-189l0 0c1147,-1533 1827,-3436 1827,-5499 0,-2062 -680,-3966 -1827,-5500l0 1c-80,-114 -211,-188 -361,-188 -241,0 -437,195 -437,437 0,102 35,195 93,269 2,2 4,4 5,7z"/>
   <path class="fil0" d="M12338 8406c242,0 438,-196 438,-438 0,-92 -29,-178 -79,-249 -292,-476 -449,-1025 -449,-1599 0,-573 157,-1123 449,-1599 50,-71 79,-157 79,-249 0,-242 -196,-438 -438,-438 -155,0 -292,81 -370,204 -377,604 -595,1317 -595,2082 0,765 218,1478 595,2082 78,123 215,204 370,204z"/>
   <path class="fil0" d="M9919 9861l0 0c78,124 214,206 371,206 241,0 437,-196 437,-438 0,-92 -28,-177 -76,-248 -230,-326 -424,-676 -581,-1047 -296,-701 -447,-1446 -447,-2214 0,-768 151,-1513 447,-2214 157,-370 351,-721 581,-1047 48,-71 76,-156 76,-248 0,-242 -196,-438 -437,-438 -157,0 -293,83 -371,206l0 0c-738,1061 -1171,2350 -1171,3741 0,1391 433,2680 1171,3741z"/>
   <path class="fil0" d="M7951 11619c79,114 210,189 360,189 241,0 437,-196 437,-438 0,-102 -34,-195 -93,-269 -1,-2 -3,-4 -5,-7 -401,-535 -736,-1117 -999,-1739 -433,-1024 -653,-2113 -653,-3235 0,-1122 220,-2211 653,-3235 263,-622 598,-1203 999,-1739 2,-3 4,-5 5,-7 59,-74 93,-167 93,-269 0,-242 -196,-437 -437,-437 -150,0 -281,74 -360,188l-1 -1c-1147,1534 -1827,3438 -1827,5500 0,2063 680,3966 1828,5499l0 0z"/>
  </g>
 </g>
</svg>
